<svg width="18" height="18" viewBox="0 0 18 18" fill="none" xmlns="http://www.w3.org/2000/svg">
<path d="M1.91699 6.73568C1.91699 5.95999 1.91699 5.57214 2.02313 5.25947C2.223 4.67068 2.68533 4.20835 3.27411 4.00848C3.58679 3.90234 3.97464 3.90234 4.75032 3.90234H13.2503C14.026 3.90234 14.4139 3.90234 14.7265 4.00848C15.3153 4.20835 15.7777 4.67068 15.9775 5.25947C16.0837 5.57214 16.0837 5.95999 16.0837 6.73568C16.0837 6.9296 16.0837 7.02656 16.0571 7.10473C16.0072 7.25193 15.8916 7.36751 15.7444 7.41748C15.6662 7.44401 15.5692 7.44401 15.3753 7.44401H2.62533C2.4314 7.44401 2.33444 7.44401 2.25627 7.41748C2.10908 7.36751 1.99349 7.25193 1.94353 7.10473C1.91699 7.02656 1.91699 6.9296 1.91699 6.73568Z" fill="#222222"/>
<path fill-rule="evenodd" clip-rule="evenodd" d="M1.91699 11.9437C1.91699 13.8293 1.91699 14.7721 2.50278 15.3579C3.08857 15.9437 4.03137 15.9437 5.91699 15.9437H12.0837C13.9693 15.9437 14.9121 15.9437 15.4979 15.3579C16.0837 14.7721 16.0837 13.8293 16.0837 11.9437V9.86035C16.0837 9.38895 16.0837 9.15324 15.9372 9.0068C15.7908 8.86035 15.5551 8.86035 15.0837 8.86035H2.91699C2.44559 8.86035 2.20989 8.86035 2.06344 9.0068C1.91699 9.15324 1.91699 9.38895 1.91699 9.86035V11.9437ZM5.45866 10.9854C5.45866 10.7914 5.45866 10.6945 5.48519 10.6163C5.53516 10.4691 5.65074 10.3535 5.79794 10.3036C5.87611 10.277 5.97307 10.277 6.16699 10.277H7.58366C7.77758 10.277 7.87454 10.277 7.95271 10.3036C8.09991 10.3535 8.21549 10.4691 8.26546 10.6163C8.29199 10.6945 8.29199 10.7914 8.29199 10.9854C8.29199 11.1793 8.29199 11.2762 8.26546 11.3544C8.21549 11.5016 8.09991 11.6172 7.95271 11.6671C7.87454 11.6937 7.77758 11.6937 7.58366 11.6937H6.16699C5.97307 11.6937 5.87611 11.6937 5.79794 11.6671C5.65074 11.6172 5.53516 11.5016 5.48519 11.3544C5.45866 11.2762 5.45866 11.1793 5.45866 10.9854ZM5.48519 13.4496C5.45866 13.5278 5.45866 13.6248 5.45866 13.8187C5.45866 14.0126 5.45866 14.1096 5.48519 14.1877C5.53516 14.3349 5.65074 14.4505 5.79794 14.5005C5.87611 14.527 5.97307 14.527 6.16699 14.527H7.58366C7.77758 14.527 7.87454 14.527 7.95271 14.5005C8.09991 14.4505 8.21549 14.3349 8.26546 14.1877C8.29199 14.1096 8.29199 14.0126 8.29199 13.8187C8.29199 13.6248 8.29199 13.5278 8.26546 13.4496C8.21549 13.3024 8.09991 13.1869 7.95271 13.1369C7.87454 13.1104 7.77758 13.1104 7.58366 13.1104H6.16699C5.97307 13.1104 5.87611 13.1104 5.79794 13.1369C5.65074 13.1869 5.53516 13.3024 5.48519 13.4496ZM9.70866 10.9854C9.70866 10.7914 9.70866 10.6945 9.73519 10.6163C9.78516 10.4691 9.90074 10.3535 10.0479 10.3036C10.1261 10.277 10.2231 10.277 10.417 10.277H11.8337C12.0276 10.277 12.1245 10.277 12.2027 10.3036C12.3499 10.3535 12.4655 10.4691 12.5155 10.6163C12.542 10.6945 12.542 10.7914 12.542 10.9854C12.542 11.1793 12.542 11.2762 12.5155 11.3544C12.4655 11.5016 12.3499 11.6172 12.2027 11.6671C12.1245 11.6937 12.0276 11.6937 11.8337 11.6937H10.417C10.2231 11.6937 10.1261 11.6937 10.0479 11.6671C9.90074 11.6172 9.78516 11.5016 9.73519 11.3544C9.70866 11.2762 9.70866 11.1793 9.70866 10.9854ZM9.73519 13.4496C9.70866 13.5278 9.70866 13.6248 9.70866 13.8187C9.70866 14.0126 9.70866 14.1096 9.73519 14.1877C9.78516 14.3349 9.90074 14.4505 10.0479 14.5005C10.1261 14.527 10.2231 14.527 10.417 14.527H11.8337C12.0276 14.527 12.1245 14.527 12.2027 14.5005C12.3499 14.4505 12.4655 14.3349 12.5155 14.1877C12.542 14.1096 12.542 14.0126 12.542 13.8187C12.542 13.6248 12.542 13.5278 12.5155 13.4496C12.4655 13.3024 12.3499 13.1869 12.2027 13.1369C12.1245 13.1104 12.0276 13.1104 11.8337 13.1104H10.417C10.2231 13.1104 10.1261 13.1104 10.0479 13.1369C9.90074 13.1869 9.78516 13.3024 9.73519 13.4496Z" fill="#222222"/>
<path d="M5.45801 2.48535L5.45801 4.61035" stroke="#222222" stroke-width="2" stroke-linecap="round"/>
<path d="M12.542 2.48535L12.542 4.61035" stroke="#222222" stroke-width="2" stroke-linecap="round"/>
</svg>
