<svg width="9" height="9" viewBox="0 0 9 9" fill="none" xmlns="http://www.w3.org/2000/svg">
<path d="M0.897339 3.90438C0.897339 3.64165 0.897339 3.51029 0.920707 3.40135C1.00744 2.997 1.3233 2.68115 1.72764 2.59441C1.83658 2.57104 1.96795 2.57104 2.23067 2.57104H6.23067C6.4934 2.57104 6.62476 2.57104 6.7337 2.59441C7.13804 2.68115 7.4539 2.997 7.54064 3.40135C7.564 3.51029 7.564 3.64165 7.564 3.90438C7.564 3.97006 7.564 4.0029 7.55816 4.03014C7.53648 4.13122 7.45751 4.21019 7.35643 4.23187C7.32919 4.23771 7.29635 4.23771 7.23067 4.23771H1.23067C1.16499 4.23771 1.13215 4.23771 1.10491 4.23187C1.00383 4.21019 0.924864 4.13122 0.903181 4.03014C0.897339 4.0029 0.897339 3.97006 0.897339 3.90438Z" fill="#FFFBFB"/>
<path fill-rule="evenodd" clip-rule="evenodd" d="M0.896118 6.13655C0.896118 7.12712 0.896118 7.62241 1.20385 7.93014C1.51158 8.23787 2.00687 8.23787 2.99744 8.23787H5.46146C6.45203 8.23787 6.94732 8.23787 7.25505 7.93014C7.56278 7.62241 7.56278 7.12712 7.56278 6.13655V5.42987C7.56278 5.18223 7.56278 5.05841 7.48585 4.98147C7.40892 4.90454 7.2851 4.90454 7.03745 4.90454H1.42145C1.17381 4.90454 1.04998 4.90454 0.973051 4.98147C0.896118 5.05841 0.896118 5.18223 0.896118 5.42987V6.13655ZM2.56343 5.90453C2.56343 5.83885 2.56343 5.80601 2.56927 5.77878C2.59096 5.67769 2.66992 5.59873 2.77101 5.57704C2.79824 5.5712 2.83108 5.5712 2.89676 5.5712H3.56343C3.62911 5.5712 3.66195 5.5712 3.68919 5.57704C3.79027 5.59873 3.86924 5.67769 3.89092 5.77878C3.89676 5.80601 3.89676 5.83885 3.89676 5.90453C3.89676 5.97021 3.89676 6.00306 3.89092 6.03029C3.86924 6.13138 3.79027 6.21034 3.68919 6.23202C3.66195 6.23787 3.62911 6.23787 3.56343 6.23787H2.89676C2.83108 6.23787 2.79824 6.23787 2.77101 6.23202C2.66992 6.21034 2.59096 6.13138 2.56927 6.03029C2.56343 6.00306 2.56343 5.97021 2.56343 5.90453ZM2.56927 7.11211C2.56343 7.13935 2.56343 7.17219 2.56343 7.23787C2.56343 7.30355 2.56343 7.33639 2.56927 7.36363C2.59096 7.46471 2.66992 7.54368 2.77101 7.56536C2.79824 7.5712 2.83108 7.5712 2.89676 7.5712H3.56343C3.62911 7.5712 3.66195 7.5712 3.68919 7.56536C3.79027 7.54368 3.86924 7.46471 3.89092 7.36363C3.89676 7.33639 3.89676 7.30355 3.89676 7.23787C3.89676 7.17219 3.89676 7.13935 3.89092 7.11211C3.86924 7.01103 3.79027 6.93206 3.68919 6.91038C3.66195 6.90454 3.62911 6.90454 3.56343 6.90454H2.89676C2.83108 6.90454 2.79824 6.90454 2.77101 6.91038C2.66992 6.93206 2.59096 7.01103 2.56927 7.11211ZM4.56318 5.90453C4.56318 5.83885 4.56318 5.80601 4.56902 5.77878C4.5907 5.67769 4.66967 5.59873 4.77075 5.57704C4.79799 5.5712 4.83083 5.5712 4.89651 5.5712H5.56318C5.62886 5.5712 5.6617 5.5712 5.68894 5.57704C5.79002 5.59873 5.86899 5.67769 5.89067 5.77878C5.89651 5.80601 5.89651 5.83885 5.89651 5.90453C5.89651 5.97021 5.89651 6.00306 5.89067 6.03029C5.86899 6.13138 5.79002 6.21034 5.68894 6.23202C5.6617 6.23787 5.62886 6.23787 5.56318 6.23787H4.89651C4.83083 6.23787 4.79799 6.23787 4.77075 6.23202C4.66967 6.21034 4.5907 6.13138 4.56902 6.03029C4.56318 6.00306 4.56318 5.97021 4.56318 5.90453ZM4.56902 7.11211C4.56318 7.13935 4.56318 7.17219 4.56318 7.23787C4.56318 7.30355 4.56318 7.33639 4.56902 7.36363C4.5907 7.46471 4.66967 7.54368 4.77075 7.56536C4.79799 7.5712 4.83083 7.5712 4.89651 7.5712H5.56318C5.62886 7.5712 5.6617 7.5712 5.68894 7.56536C5.79002 7.54368 5.86899 7.46471 5.89067 7.36363C5.89651 7.33639 5.89651 7.30355 5.89651 7.23787C5.89651 7.17219 5.89651 7.13935 5.89067 7.11211C5.86899 7.01103 5.79002 6.93206 5.68894 6.91038C5.6617 6.90454 5.62886 6.90454 5.56318 6.90454H4.89651C4.83083 6.90454 4.79799 6.90454 4.77075 6.91038C4.66967 6.93206 4.5907 7.01103 4.56902 7.11211Z" fill="#FFFBFB"/>
<path d="M2.56372 1.90405L2.56372 2.90405" stroke="#FFFBFB" stroke-width="1.05066" stroke-linecap="round"/>
<path d="M5.89722 1.90405L5.89722 2.90405" stroke="#FFFBFB" stroke-width="1.05066" stroke-linecap="round"/>
</svg>
