<svg width="22" height="23" viewBox="0 0 22 23" fill="none" xmlns="http://www.w3.org/2000/svg">
<g clip-path="url(#clip0_887_37607)">
<path d="M10.9642 17.0662C10.8738 17.0659 10.7844 17.0467 10.702 17.0097C10.6195 16.9726 10.5458 16.9187 10.4855 16.8513L4.45612 10.165C4.37327 10.0723 4.31897 9.95773 4.29975 9.83495C4.28053 9.71217 4.29721 9.58645 4.3478 9.47293C4.39838 9.35942 4.4807 9.26295 4.58484 9.19514C4.68899 9.12733 4.81052 9.09108 4.93479 9.09074H7.34921V3.20703C7.34921 3.03609 7.41711 2.87215 7.53799 2.75128C7.65886 2.63041 7.8228 2.5625 7.99374 2.5625H13.9363C14.1073 2.5625 14.2712 2.63041 14.3921 2.75128C14.5129 2.87215 14.5808 3.03609 14.5808 3.20703V9.08902H16.994C17.1182 9.08936 17.2398 9.12561 17.3439 9.19342C17.4481 9.26123 17.5304 9.3577 17.581 9.47122C17.6316 9.58473 17.6482 9.71045 17.629 9.83323C17.6098 9.95601 17.5555 10.0706 17.4726 10.1632L11.4428 16.853C11.3824 16.9201 11.3086 16.9737 11.2261 17.0104C11.1437 17.0472 11.0544 17.0661 10.9642 17.0662ZM6.3837 10.3781L10.9642 15.4591L15.5451 10.3781H13.9363C13.7654 10.3781 13.6014 10.3102 13.4806 10.1893C13.3597 10.0684 13.2918 9.90449 13.2918 9.73355V3.85156H8.63827V9.73355C8.63827 9.90449 8.57036 10.0684 8.44949 10.1893C8.32862 10.3102 8.16468 10.3781 7.99374 10.3781H6.3837Z" fill="black"/>
<path d="M16.7954 19.8359H5.13325C4.38941 19.8351 3.67626 19.5393 3.15024 19.0134C2.62422 18.4875 2.3283 17.7743 2.32739 17.0305V15.3904C2.32739 15.2194 2.3953 15.0555 2.51617 14.9346C2.63704 14.8138 2.80098 14.7459 2.97192 14.7459C3.14286 14.7459 3.3068 14.8138 3.42768 14.9346C3.54855 15.0555 3.61645 15.2194 3.61645 15.3904V17.0305C3.61702 17.4326 3.77702 17.818 4.06137 18.1023C4.34571 18.3865 4.73119 18.5464 5.13325 18.5469H16.7954C17.1974 18.5464 17.5829 18.3865 17.8671 18.1022C18.1514 17.818 18.3113 17.4325 18.3118 17.0305V15.3904C18.3118 15.2194 18.3797 15.0555 18.5005 14.9346C18.6214 14.8138 18.7854 14.7459 18.9563 14.7459C19.1272 14.7459 19.2912 14.8138 19.4121 14.9346C19.5329 15.0555 19.6008 15.2194 19.6008 15.3904V17.0305C19.5999 17.7743 19.3041 18.4873 18.7781 19.0132C18.2522 19.5392 17.5392 19.835 16.7954 19.8359Z" fill="black"/>
</g>
<defs>
<clipPath id="clip0_887_37607">
<rect width="22" height="22" fill="white" transform="translate(0 0.5)"/>
</clipPath>
</defs>
</svg>
