<svg width="48" height="48" viewBox="0 0 48 48" fill="none" xmlns="http://www.w3.org/2000/svg">
<path d="M23.9995 0C10.7451 0 0 10.7848 0 24.0882C0 35.3845 7.74896 44.8637 18.2022 47.4672V31.4495H13.2535V24.0882H18.2022V20.9162C18.2022 12.7176 21.8991 8.91744 29.9188 8.91744C31.4394 8.91744 34.063 9.21709 35.1363 9.51579V16.1882C34.5699 16.1285 33.5859 16.0986 32.3638 16.0986C28.4289 16.0986 26.9083 17.595 26.9083 21.4847V24.0882H34.7475L33.4006 31.4495H26.9083V48C38.7919 46.5595 48 36.404 48 24.0882C47.999 10.7848 37.254 0 23.9995 0Z" fill="white"/>
</svg>
