<svg width="19" height="19" viewBox="0 0 19 19" fill="none" xmlns="http://www.w3.org/2000/svg">
<path d="M9.5 17.5C13.9183 17.5 17.5 13.9183 17.5 9.5C17.5 5.08172 13.9183 1.5 9.5 1.5C5.08172 1.5 1.5 5.08172 1.5 9.5C1.5 13.9183 5.08172 17.5 9.5 17.5Z" stroke="#293352" stroke-width="1.5" stroke-miterlimit="10"/>
<path d="M10 12.833C10 13.1092 9.77614 13.333 9.5 13.333C9.22386 13.333 9 13.1092 9 12.833C9 12.5569 9.22386 12.333 9.5 12.333C9.77614 12.333 10 12.5569 10 12.833Z" stroke="#293352"/>
<path d="M7.5 7.16517C7.5 6.76996 7.6173 6.38364 7.83706 6.05504C8.05682 5.72644 8.36919 5.47033 8.73464 5.31909C9.10009 5.16785 9.50222 5.12829 9.89018 5.20539C10.2781 5.28248 10.6345 5.47279 10.9142 5.75225C11.1939 6.0317 11.3844 6.38774 11.4616 6.77534C11.5387 7.16295 11.4991 7.56471 11.3478 7.92983C11.1964 8.29495 10.94 8.60702 10.6111 8.82658C10.2822 9.04614 9.09375 9.2296 8.69819 9.2296L9.62681 10.9108" stroke="#293352" stroke-width="1.2" stroke-linecap="round" stroke-linejoin="round"/>
</svg>
