<svg width="25" height="24" viewBox="0 0 25 24" fill="none" xmlns="http://www.w3.org/2000/svg">
<path fill-rule="evenodd" clip-rule="evenodd" d="M12.898 17.804C14.381 17.0348 19.5 14.0163 19.5 9C19.5 5.13401 16.366 2 12.5 2C8.63401 2 5.5 5.13401 5.5 9C5.5 14.0163 10.619 17.0348 12.102 17.804C12.3548 17.9351 12.6452 17.9351 12.898 17.804ZM12.5 12C14.1569 12 15.5 10.6569 15.5 9C15.5 7.34315 14.1569 6 12.5 6C10.8431 6 9.5 7.34315 9.5 9C9.5 10.6569 10.8431 12 12.5 12Z" fill="white"/>
<path d="M18.5622 16.5C19.1766 16.9561 19.5 17.4734 19.5 18C19.5 18.5266 19.1766 19.0439 18.5622 19.5C17.9478 19.9561 17.0641 20.3348 16 20.5981C14.9359 20.8614 13.7288 21 12.5 21C11.2712 21 10.0641 20.8614 9 20.5981C7.93587 20.3348 7.0522 19.9561 6.43782 19.5C5.82344 19.0439 5.5 18.5266 5.5 18C5.5 17.4734 5.82344 16.9561 6.43782 16.5" stroke="white" stroke-width="2" stroke-linecap="round"/>
</svg>
