<svg width="9" height="9" viewBox="0 0 9 9" fill="none" xmlns="http://www.w3.org/2000/svg">
<path d="M4.59302 7.46481L4.47378 7.24508H4.47378L4.59302 7.46481ZM4.17423 7.46481L4.29347 7.24508H4.29347L4.17423 7.46481ZM6.46696 4.57088C6.46696 5.28164 6.12199 5.86898 5.68827 6.32723C5.25426 6.78579 4.74861 7.09595 4.47378 7.24508L4.71226 7.68455C5.01037 7.52278 5.56669 7.18306 6.05141 6.67093C6.53643 6.15848 6.96696 5.4543 6.96696 4.57088H6.46696ZM4.38363 2.48755C5.53422 2.48755 6.46696 3.42029 6.46696 4.57088H6.96696C6.96696 3.14415 5.81036 1.98755 4.38363 1.98755V2.48755ZM2.30029 4.57088C2.30029 3.42029 3.23303 2.48755 4.38363 2.48755V1.98755C2.95689 1.98755 1.80029 3.14415 1.80029 4.57088H2.30029ZM4.29347 7.24508C4.01865 7.09595 3.513 6.78579 3.07898 6.32723C2.64526 5.86898 2.30029 5.28164 2.30029 4.57088H1.80029C1.80029 5.4543 2.23083 6.15848 2.71584 6.67093C3.20056 7.18306 3.75688 7.52278 4.055 7.68455L4.29347 7.24508ZM4.47378 7.24508C4.41663 7.27609 4.35063 7.27609 4.29347 7.24508L4.055 7.68455C4.26089 7.79627 4.50636 7.79627 4.71226 7.68455L4.47378 7.24508ZM5.13414 4.57089C5.13414 4.9851 4.79836 5.32089 4.38414 5.32089V5.82089C5.0745 5.82089 5.63414 5.26124 5.63414 4.57089H5.13414ZM4.38414 3.82089C4.79836 3.82089 5.13414 4.15667 5.13414 4.57089H5.63414C5.63414 3.88053 5.0745 3.32089 4.38414 3.32089V3.82089ZM3.63414 4.57089C3.63414 4.15667 3.96993 3.82089 4.38414 3.82089V3.32089C3.69379 3.32089 3.13414 3.88053 3.13414 4.57089H3.63414ZM4.38414 5.32089C3.96993 5.32089 3.63414 4.9851 3.63414 4.57089H3.13414C3.13414 5.26124 3.69379 5.82089 4.38414 5.82089V5.32089Z" fill="white"/>
</svg>
