<svg width="21" height="21" viewBox="0 0 21 21" fill="none" xmlns="http://www.w3.org/2000/svg">
<path fill-rule="evenodd" clip-rule="evenodd" d="M9.05109 3.4637C8.91297 3.41347 8.75975 3.42656 8.63215 3.49947L3.23707 6.58238C3.09047 6.66615 3 6.82205 3 6.99089C3 7.18874 3.12377 7.36545 3.30971 7.43306L11.8551 10.5405C11.9932 10.5907 12.1465 10.5776 12.2741 10.5047L17.7974 7.3485C17.9227 7.27692 18 7.14371 18 6.99944C18 6.83038 17.8942 6.67939 17.7354 6.62161L9.05109 3.4637ZM18 10.3978C18 10.0139 17.5853 9.77325 17.2519 9.96372L12.6628 12.5861C12.4076 12.7319 12.1012 12.7581 11.8249 12.6576L3.67087 9.69252C3.34478 9.57394 3 9.81543 3 10.1624V11.1369C3 11.3472 3.13153 11.535 3.32913 11.6068L11.8551 14.7072C11.9932 14.7574 12.1465 14.7443 12.2741 14.6714L17.7481 11.5434C17.9039 11.4544 18 11.2887 18 11.1093V10.3978ZM3.32913 16.0042C3.13153 15.9323 3 15.7446 3 15.5343V14.3291C3 13.9821 3.34478 13.7406 3.67087 13.8592L11.8249 16.8243C12.1012 16.9248 12.4076 16.8986 12.6628 16.7528L17.2519 14.1304C17.5853 13.9399 18 14.1806 18 14.5645V15.5944C18 15.7738 17.9039 15.9395 17.7481 16.0285L12.3678 19.1029C12.2402 19.1758 12.087 19.1889 11.9489 19.1387L3.32913 16.0042Z" fill="#222222"/>
</svg>
