<svg width="25" height="24" viewBox="0 0 25 24" fill="none" xmlns="http://www.w3.org/2000/svg">
<path d="M7.73223 3.23223C7.33096 3.63351 7.15836 4.13876 7.07768 4.73883C6.99997 5.31681 6.99999 6.05169 7 6.96342L7 7V17L7 17.0366C6.99999 17.9483 6.99997 18.6832 7.07768 19.2612C7.15836 19.8612 7.33096 20.3665 7.73223 20.7678C8.13351 21.169 8.63876 21.3416 9.23883 21.4223C9.81681 21.5 10.5517 21.5 11.4634 21.5H11.5H13.5H13.5366C14.4483 21.5 15.1832 21.5 15.7612 21.4223C16.3612 21.3416 16.8665 21.169 17.2678 20.7678C17.669 20.3665 17.8416 19.8612 17.9223 19.2612C18 18.6832 18 17.9483 18 17.0366V17V7V6.96343C18 6.0517 18 5.31681 17.9223 4.73883C17.8416 4.13876 17.669 3.63351 17.2678 3.23223C16.8665 2.83096 16.3612 2.65836 15.7612 2.57768C15.1832 2.49997 14.4483 2.49999 13.5366 2.5L13.5 2.5H11.5L11.4634 2.5C10.5517 2.49999 9.81681 2.49997 9.23883 2.57768C8.63876 2.65836 8.13351 2.83096 7.73223 3.23223Z" stroke="white"/>
<path d="M7.5 16H17.5" stroke="white"/>
</svg>
