<svg width="18" height="18" viewBox="0 0 18 18" fill="none" xmlns="http://www.w3.org/2000/svg">
<path d="M14.2071 11.7071L16.8552 14.3552C17.2113 14.7113 17.2113 15.2887 16.8552 15.6448C14.93 17.57 11.8821 17.7866 9.70399 16.153L8.12857 14.9714C6.38504 13.6638 4.83622 12.115 3.52857 10.3714L2.34701 8.79601C0.713407 6.61788 0.930014 3.56999 2.85523 1.64477C3.21133 1.28867 3.78867 1.28867 4.14477 1.64477L6.79289 4.29289C7.18342 4.68342 7.18342 5.31658 6.79289 5.70711L5.77175 6.72825C5.60946 6.89054 5.56923 7.13846 5.67187 7.34373C6.85853 9.71706 8.78294 11.6415 11.1563 12.8281C11.3615 12.9308 11.6095 12.8905 11.7717 12.7283L12.7929 11.7071C13.1834 11.3166 13.8166 11.3166 14.2071 11.7071Z" stroke="white"/>
</svg>
