<svg width="21" height="20" viewBox="0 0 21 20" fill="none" xmlns="http://www.w3.org/2000/svg">
<path fill-rule="evenodd" clip-rule="evenodd" d="M10.8999 14.8015C12.2162 14.1072 16.3337 11.6072 16.3337 7.50033C16.3337 4.27866 13.722 1.66699 10.5003 1.66699C7.27866 1.66699 4.66699 4.27866 4.66699 7.50033C4.66699 11.6072 8.78441 14.1072 10.1008 14.8015C10.3527 14.9344 10.6479 14.9344 10.8999 14.8015ZM10.5003 10.0003C11.881 10.0003 13.0003 8.88104 13.0003 7.50033C13.0003 6.11961 11.881 5.00033 10.5003 5.00033C9.11961 5.00033 8.00033 6.11961 8.00033 7.50033C8.00033 8.88104 9.11961 10.0003 10.5003 10.0003Z" fill="#222222"/>
<path d="M15.5521 13.75C16.0641 14.13 16.3337 14.5612 16.3337 15C16.3337 15.4388 16.0641 15.87 15.5521 16.25C15.0402 16.63 14.3038 16.9456 13.417 17.1651C12.5302 17.3845 11.5243 17.5 10.5003 17.5C9.47636 17.5 8.47044 17.3845 7.58366 17.1651C6.69688 16.9456 5.96049 16.63 5.44851 16.25C4.93653 15.87 4.66699 15.4388 4.66699 15C4.66699 14.5612 4.93653 14.13 5.44851 13.75" stroke="#222222" stroke-width="2" stroke-linecap="round"/>
</svg>
