<svg width="22" height="23" viewBox="0 0 22 23" fill="none" xmlns="http://www.w3.org/2000/svg">
<path d="M8.25 12.4167L13.75 12.4167" stroke="white" stroke-width="2" stroke-linecap="round"/>
<path d="M8.25 8.75L11.9167 8.75" stroke="white" stroke-width="2" stroke-linecap="round"/>
<path d="M8.25 16.0833L11.9167 16.0833" stroke="white" stroke-width="2" stroke-linecap="round"/>
<path d="M17.4166 12.4167V13.75C17.4166 16.5784 17.4166 17.9926 16.5379 18.8713C15.6592 19.75 14.245 19.75 11.4166 19.75H10.5832C7.75482 19.75 6.34061 19.75 5.46193 18.8713C4.58325 17.9926 4.58325 16.5784 4.58325 13.75V8.75C4.58325 6.40442 4.58325 5.23164 5.20319 4.42372C5.36279 4.21572 5.54897 4.02954 5.75697 3.86994C6.56489 3.25 7.73768 3.25 10.0833 3.25V3.25" stroke="white" stroke-width="2"/>
<path d="M16.5 3.25L16.5 8.75" stroke="white" stroke-width="2" stroke-linecap="round"/>
<path d="M19.25 6L13.75 6" stroke="white" stroke-width="2" stroke-linecap="round"/>
</svg>
