<svg width="23" height="23" viewBox="0 0 23 23" fill="none" xmlns="http://www.w3.org/2000/svg">
<path d="M8.75 12.4167L14.25 12.4167" stroke="black" stroke-linecap="round"/>
<path d="M8.75 8.75L12.4167 8.75" stroke="black" stroke-linecap="round"/>
<path d="M8.75 16.0833L12.4167 16.0833" stroke="black" stroke-linecap="round"/>
<path d="M17.9166 12.4167V13.75C17.9166 16.5784 17.9166 17.9926 17.0379 18.8713C16.1592 19.75 14.745 19.75 11.9166 19.75H11.0832C8.25482 19.75 6.84061 19.75 5.96193 18.8713C5.08325 17.9926 5.08325 16.5784 5.08325 13.75V8.75C5.08325 6.40442 5.08325 5.23164 5.70319 4.42372C5.86279 4.21572 6.04897 4.02954 6.25697 3.86994C7.06489 3.25 8.23768 3.25 10.5833 3.25V3.25" stroke="black"/>
<path d="M17 3.25L17 8.75" stroke="black" stroke-linecap="round"/>
<path d="M19.75 6L14.25 6" stroke="black" stroke-linecap="round"/>
</svg>
